<?xml version="1.0" encoding="UTF-8"?>
<svg width="728px" height="484px" viewBox="0 0 728 484" version="1.1" xmlns="http://www.w3.org/2000/svg" xmlns:xlink="http://www.w3.org/1999/xlink">
    <!-- Generator: Sketch 51.1 (57501) - http://www.bohemiancoding.com/sketch -->
    <title>iced-tea</title>
    <desc>Created with Sketch.</desc>
    <defs></defs>
    <g id="Page-1" stroke="none" stroke-width="1" fill="none" fill-rule="evenodd">
        <g id="iced-tea" transform="translate(4.000000, 0.000000)" fill-rule="nonzero">
            <path d="M245.896,399.955 L170.573,399.955 C132.008,399.955 100.633,368.58 100.633,330.015 L100.633,257.535 C100.633,218.97 132.008,187.595 170.573,187.595 L245.896,187.595 C257.357,187.595 266.648,196.886 266.648,208.347 C266.648,219.808 257.357,229.099 245.896,229.099 L170.573,229.099 C154.893,229.099 142.137,241.856 142.137,257.535 L142.137,330.015 C142.137,345.695 154.894,358.451 170.573,358.451 L245.896,358.451 C257.357,358.451 266.648,367.741 266.648,379.203 C266.648,390.664 257.356,399.955 245.896,399.955 Z" id="Shape" fill="#85E7FF"></path>
            <path d="M472.427,47.52 L242.791,47.52 C234.191,47.52 227.219,54.492 227.219,63.092 L227.219,74.834 C227.219,83.434 234.191,90.406 242.791,90.406 L357.609,116.692 L472.427,90.406 C481.027,90.406 487.999,83.434 487.999,74.834 L487.999,63.092 C487.999,54.491 481.028,47.52 472.427,47.52 Z" id="Shape" fill="#85E7FF"></path>
            <g id="Arms" transform="translate(0.000000, 223.000000)" stroke="#3A484A" stroke-width="30">
                <polyline id="Path-2" points="521 52.287369 587.300225 96.9975026 668.109253 0 718.230315 17.1432635"></polyline>
                <polyline id="Path-2-Copy" transform="translate(97.120198, 64.498751) scale(-1, 1) translate(-97.120198, -64.498751) " points="0.240396894 68.287369 66.5406217 112.997503 147.34965 16 194 27.4355649"></polyline>
            </g>
            <path d="M242.791,90.407 C242.791,90.407 184.851,117.038 184.851,172.55 L184.851,401.858 C184.851,416.727 189.008,429.525 195.095,440.292 C210.523,467.584 239.905,484 271.255,484 L443.965,484 C475.315,484 504.697,467.583 520.124,440.291 C526.211,429.523 530.368,416.726 530.368,401.857 L530.368,172.549 C530.368,117.038 472.428,90.406 472.428,90.406 L242.791,90.407 Z" id="Shape" fill="#57D0E6"></path>
            <path d="M298.890473,88.7522697 C293.804232,88.7522697 221.364346,114.580728 221.364346,164.970765 L221.364346,373.121051 C221.364346,386.618123 224.647481,398.235281 229.4549,408.008835 C241.639696,432.782666 264.845147,447.684 289.604894,447.684 L426.008589,447.684 C450.768336,447.684 473.973786,432.781758 486.157793,408.007927 C490.965212,398.233466 494.248346,386.617215 494.248346,373.120143 L494.248346,164.969857 C494.248346,131.377104 469.458137,105.971242 419.877718,88.7522697 L298.890473,88.7522697 Z" id="Shape-Copy" fill="#FFFFFF"></path>
            <path d="M221.166,161.501086 L221.166,401.857 C221.166,409.097 222.979,415.823 226.708,422.42 C235.517,438.004 252.586,447.684 271.253,447.684 L443.963,447.684 C462.631,447.684 479.699,438.003 488.508,422.421 C492.238,415.823 494.05,409.096 494.05,401.857 L494.05,161.501086 L221.166,161.501086 Z" id="Shape" fill="#FADC60"></path>
            <g id="Group" transform="translate(273.000000, 275.000000)" fill="#3A484A">
                <path d="M8.245,29.396 C3.978,29.396 0.519,25.937 0.519,21.67 L0.519,7.849 C0.519,3.582 3.978,0.123 8.245,0.123 C12.512,0.123 15.971,3.582 15.971,7.849 L15.971,21.67 C15.972,25.937 12.512,29.396 8.245,29.396 Z" id="Shape"></path>
                <path d="M160.974,29.396 C156.707,29.396 153.248,25.937 153.248,21.67 L153.248,7.849 C153.248,3.582 156.707,0.123 160.974,0.123 C165.241,0.123 168.7,3.582 168.7,7.849 L168.7,21.67 C168.7,25.937 165.241,29.396 160.974,29.396 Z" id="Shape"></path>
                <path d="M84.609,36.774 C75.033,36.774 66.043,32.772 59.943,25.793 C57.135,22.58 57.462,17.699 60.675,14.891 C63.887,12.084 68.767,12.41 71.577,15.623 C74.742,19.244 79.491,21.32 84.608,21.32 C89.724,21.32 94.473,19.243 97.639,15.622 C100.447,12.409 105.328,12.082 108.541,14.89 C111.754,17.698 112.082,22.579 109.272,25.792 C103.174,32.772 94.185,36.774 84.609,36.774 Z" id="Shape" transform="translate(84.608122, 24.877342) scale(1, -1) translate(-84.608122, -24.877342) "></path>
            </g>
            <g id="Foam" transform="translate(320.000000, 0.000000)" fill="#FFFFFF">
                <circle id="Oval" cx="54.5" cy="47.5" r="33.5"></circle>
                <circle id="Oval" cx="103" cy="43" r="43"></circle>
                <circle id="Oval" cx="20.5" cy="47.5" r="20.5"></circle>
                <circle id="Oval" cx="145.5" cy="47.5" r="20.5"></circle>
            </g>
        </g>
    </g>
</svg>